<mxfile host="Electron" agent="Mozilla/5.0 (X11; Linux x86_64) AppleWebKit/537.36 (KHTML, like Gecko) draw.io/26.1.1 Chrome/132.0.6834.210 Electron/34.3.3 Safari/537.36" version="26.1.1">
  <diagram name="Page-1" id="DYhZLADpp6qKP8cxEMP8">
    <mxGraphModel dx="1114" dy="849" grid="1" gridSize="10" guides="1" tooltips="1" connect="1" arrows="1" fold="1" page="1" pageScale="1" pageWidth="850" pageHeight="1100" math="0" shadow="0">
      <root>
        <mxCell id="0" />
        <mxCell id="1" parent="0" />
        <mxCell id="KmBbsBZ8y6_SNBKtLyiu-1" value="Аутентификация" style="rounded=1;whiteSpace=wrap;html=1;" vertex="1" parent="1">
          <mxGeometry x="290" y="170" width="120" height="90" as="geometry" />
        </mxCell>
        <mxCell id="KmBbsBZ8y6_SNBKtLyiu-2" value="Обработчик&amp;nbsp;&lt;div&gt;HTTP-запросов&lt;/div&gt;" style="rounded=1;whiteSpace=wrap;html=1;" vertex="1" parent="1">
          <mxGeometry x="290" y="330" width="120" height="180" as="geometry" />
        </mxCell>
        <mxCell id="KmBbsBZ8y6_SNBKtLyiu-3" value="" style="endArrow=classic;html=1;rounded=0;entryX=0.004;entryY=0.159;entryDx=0;entryDy=0;entryPerimeter=0;" edge="1" parent="1" target="KmBbsBZ8y6_SNBKtLyiu-2">
          <mxGeometry width="50" height="50" relative="1" as="geometry">
            <mxPoint x="70" y="360" as="sourcePoint" />
            <mxPoint x="330" y="290" as="targetPoint" />
          </mxGeometry>
        </mxCell>
        <mxCell id="KmBbsBZ8y6_SNBKtLyiu-4" value="запрос" style="edgeLabel;html=1;align=center;verticalAlign=middle;resizable=0;points=[];" vertex="1" connectable="0" parent="KmBbsBZ8y6_SNBKtLyiu-3">
          <mxGeometry x="-0.0215" relative="1" as="geometry">
            <mxPoint y="-10" as="offset" />
          </mxGeometry>
        </mxCell>
        <mxCell id="KmBbsBZ8y6_SNBKtLyiu-5" value="Правила" style="rounded=1;whiteSpace=wrap;html=1;" vertex="1" parent="1">
          <mxGeometry x="570" y="363" width="120" height="70" as="geometry" />
        </mxCell>
        <mxCell id="KmBbsBZ8y6_SNBKtLyiu-6" value="" style="endArrow=classic;html=1;rounded=0;entryX=-0.02;entryY=0.3;entryDx=0;entryDy=0;entryPerimeter=0;exitX=1.017;exitY=0.3;exitDx=0;exitDy=0;exitPerimeter=0;startArrow=none;startFill=0;" edge="1" parent="1" target="KmBbsBZ8y6_SNBKtLyiu-5" source="KmBbsBZ8y6_SNBKtLyiu-2">
          <mxGeometry width="50" height="50" relative="1" as="geometry">
            <mxPoint x="100" y="610" as="sourcePoint" />
            <mxPoint x="390" y="610" as="targetPoint" />
          </mxGeometry>
        </mxCell>
        <mxCell id="KmBbsBZ8y6_SNBKtLyiu-11" value="выюборка списка правил" style="edgeLabel;html=1;align=center;verticalAlign=middle;resizable=0;points=[];" vertex="1" connectable="0" parent="KmBbsBZ8y6_SNBKtLyiu-6">
          <mxGeometry x="-0.3476" y="1" relative="1" as="geometry">
            <mxPoint x="28" y="-13" as="offset" />
          </mxGeometry>
        </mxCell>
        <mxCell id="KmBbsBZ8y6_SNBKtLyiu-8" value="" style="endArrow=classic;html=1;rounded=0;entryX=0;entryY=0.75;entryDx=0;entryDy=0;" edge="1" parent="1" target="KmBbsBZ8y6_SNBKtLyiu-1">
          <mxGeometry width="50" height="50" relative="1" as="geometry">
            <mxPoint x="70" y="240" as="sourcePoint" />
            <mxPoint x="410" y="490" as="targetPoint" />
          </mxGeometry>
        </mxCell>
        <mxCell id="KmBbsBZ8y6_SNBKtLyiu-9" value="Войти в систему" style="edgeLabel;html=1;align=center;verticalAlign=middle;resizable=0;points=[];" vertex="1" connectable="0" parent="KmBbsBZ8y6_SNBKtLyiu-8">
          <mxGeometry x="-0.5924" relative="1" as="geometry">
            <mxPoint x="87" y="-9" as="offset" />
          </mxGeometry>
        </mxCell>
      </root>
    </mxGraphModel>
  </diagram>
</mxfile>
